<svg viewBox="0 0 1200 900" xmlns="http://www.w3.org/2000/svg">
  <defs>
    <linearGradient id="headerGrad" x1="0%" y1="0%" x2="100%" y2="0%">
      <stop offset="0%" style="stop-color:#4F46E5;stop-opacity:1" />
      <stop offset="100%" style="stop-color:#7C3AED;stop-opacity:1" />
    </linearGradient>
    <linearGradient id="dataGrad" x1="0%" y1="0%" x2="100%" y2="100%">
      <stop offset="0%" style="stop-color:#10B981;stop-opacity:1" />
      <stop offset="100%" style="stop-color:#059669;stop-opacity:1" />
    </linearGradient>
    <linearGradient id="apiGrad" x1="0%" y1="0%" x2="100%" y2="100%">
      <stop offset="0%" style="stop-color:#F59E0B;stop-opacity:1" />
      <stop offset="100%" style="stop-color:#D97706;stop-opacity:1" />
    </linearGradient>
    <linearGradient id="dbGrad" x1="0%" y1="0%" x2="100%" y2="100%">
      <stop offset="0%" style="stop-color:#EF4444;stop-opacity:1" />
      <stop offset="100%" style="stop-color:#DC2626;stop-opacity:1" />
    </linearGradient>
    <filter id="shadow" x="-20%" y="-20%" width="140%" height="140%">
      <feDropShadow dx="2" dy="2" stdDeviation="3" flood-color="#00000030"/>
    </filter>
  </defs>
  
  <!-- Background -->
  <rect width="1200" height="900" fill="#F8FAFC"/>
  
  <!-- Title -->
  <rect x="50" y="20" width="1100" height="60" rx="8" fill="url(#headerGrad)" filter="url(#shadow)"/>
  <text x="600" y="55" text-anchor="middle" fill="white" font-size="24" font-weight="bold">Pinecone Query Agent - System Architecture</text>
  
  <!-- User Interface Layer -->
  <rect x="50" y="100" width="300" height="200" rx="8" fill="#DBEAFE" stroke="#3B82F6" stroke-width="2" filter="url(#shadow)"/>
  <text x="200" y="125" text-anchor="middle" font-size="16" font-weight="bold" fill="#1E40AF">User Interface (Streamlit)</text>
  
  <rect x="70" y="140" width="120" height="40" rx="4" fill="#3B82F6" opacity="0.8"/>
  <text x="130" y="165" text-anchor="middle" font-size="12" font-weight="bold" fill="white">Query Input</text>
  
  <rect x="210" y="140" width="120" height="40" rx="4" fill="#3B82F6" opacity="0.8"/>
  <text x="270" y="165" text-anchor="middle" font-size="12" font-weight="bold" fill="white">Config Panel</text>
  
  <rect x="70" y="200" width="120" height="40" rx="4" fill="#3B82F6" opacity="0.8"/>
  <text x="130" y="225" text-anchor="middle" font-size="12" font-weight="bold" fill="white">Upload Data</text>
  
  <rect x="210" y="200" width="120" height="40" rx="4" fill="#3B82F6" opacity="0.8"/>
  <text x="270" y="225" text-anchor="middle" font-size="12" font-weight="bold" fill="white">Results Display</text>
  
  <!-- Data Processing Layer -->
  <rect x="50" y="330" width="550" height="220" rx="8" fill="#ECFDF5" stroke="#10B981" stroke-width="2" filter="url(#shadow)"/>
  <text x="325" y="355" text-anchor="middle" font-size="16" font-weight="bold" fill="#047857">Data Processing Pipeline</text>
  
  <!-- CSV Data Source -->
  <rect x="70" y="375" width="100" height="60" rx="4" fill="url(#dataGrad)"/>
  <text x="120" y="395" text-anchor="middle" font-size="10" font-weight="bold" fill="white">CSV Data</text>
  <text x="120" y="410" text-anchor="middle" font-size="9" fill="white">sample_data</text>
  <text x="120" y="425" text-anchor="middle" font-size="9" fill="white">itg_sports.csv</text>
  
  <!-- Data Creation -->
  <rect x="190" y="375" width="100" height="60" rx="4" fill="url(#dataGrad)"/>
  <text x="240" y="395" text-anchor="middle" font-size="10" font-weight="bold" fill="white">Data Creation</text>
  <text x="240" y="410" text-anchor="middle" font-size="9" fill="white">JSON Format</text>
  <text x="240" y="425" text-anchor="middle" font-size="9" fill="white">output.json</text>
  
  <!-- Embeddings -->
  <rect x="310" y="375" width="100" height="60" rx="4" fill="url(#dataGrad)"/>
  <text x="360" y="390" text-anchor="middle" font-size="10" font-weight="bold" fill="white">Embeddings</text>
  <text x="360" y="405" text-anchor="middle" font-size="9" fill="white">SentenceTransformer</text>
  <text x="360" y="420" text-anchor="middle" font-size="9" fill="white">all-MiniLM-L6-v2</text>
  
  <!-- Pinecone Format -->
  <rect x="430" y="375" width="100" height="60" rx="4" fill="url(#dataGrad)"/>
  <text x="480" y="390" text-anchor="middle" font-size="10" font-weight="bold" fill="white">Pinecone</text>
  <text x="480" y="405" text-anchor="middle" font-size="9" fill="white">Format</text>
  <text x="480" y="420" text-anchor="middle" font-size="9" fill="white">pinecone_data.json</text>
  
  <!-- Schema Box -->
  <rect x="70" y="460" width="460" height="70" rx="4" fill="#F0FDF4" stroke="#10B981"/>
  <text x="300" y="480" text-anchor="middle" font-size="12" font-weight="bold" fill="#047857">Data Schema</text>
  <text x="90" y="500" font-size="10" fill="#047857">• ID: pageURL</text>
  <text x="200" y="500" font-size="10" fill="#047857">• Title + Embeddings</text>
  <text x="340" y="500" font-size="10" fill="#047857">• Published Date/Year/Month/Day</text>
  <text x="90" y="515" font-size="10" fill="#047857">• Author</text>
  <text x="200" y="515" font-size="10" fill="#047857">• Tags Array</text>
  <text x="340" y="515" font-size="10" fill="#047857">• Metadata</text>
  
  <!-- AI Processing Layer -->
  <rect x="650" y="330" width="300" height="220" rx="8" fill="#FEF3C7" stroke="#F59E0B" stroke-width="2" filter="url(#shadow)"/>
  <text x="800" y="355" text-anchor="middle" font-size="16" font-weight="bold" fill="#92400E">AI Query Processing</text>
  
  <!-- Google Gemini API -->
  <rect x="670" y="375" width="120" height="80" rx="4" fill="url(#apiGrad)"/>
  <text x="730" y="395" text-anchor="middle" font-size="11" font-weight="bold" fill="white">Google Gemini</text>
  <text x="730" y="410" text-anchor="middle" font-size="10" fill="white">2.5-flash-preview</text>
  <text x="730" y="425" text-anchor="middle" font-size="9" fill="white">Filter Generation</text>
  <text x="730" y="440" text-anchor="middle" font-size="9" fill="white">Semantic Extraction</text>
  
  <!-- Query Processing -->
  <rect x="810" y="375" width="120" height="80" rx="4" fill="url(#apiGrad)"/>
  <text x="870" y="395" text-anchor="middle" font-size="11" font-weight="bold" fill="white">Query Processing</text>
  <text x="870" y="410" text-anchor="middle" font-size="9" fill="white">NL → Pinecone Filter</text>
  <text x="870" y="425" text-anchor="middle" font-size="9" fill="white">Semantic Meaning</text>
  <text x="870" y="440" text-anchor="middle" font-size="9" fill="white">Vector Encoding</text>
  
  <!-- Processing Details -->
  <rect x="670" y="475" width="260" height="60" rx="4" fill="#FEF9C3" stroke="#F59E0B"/>
  <text x="800" y="495" text-anchor="middle" font-size="11" font-weight="bold" fill="#92400E">Processing Steps</text>
  <text x="685" y="510" font-size="9" fill="#92400E">1. Natural Language → Metadata Filters</text>
  <text x="685" y="525" font-size="9" fill="#92400E">2. Extract Semantic Query for Vector Search</text>
  
  <!-- Vector Database Layer -->
  <rect x="1000" y="330" width="150" height="220" rx="8" fill="#FEE2E2" stroke="#EF4444" stroke-width="2" filter="url(#shadow)"/>
  <text x="1075" y="355" text-anchor="middle" font-size="16" font-weight="bold" fill="#B91C1C">Pinecone DB</text>
  
  <rect x="1020" y="375" width="110" height="60" rx="4" fill="url(#dbGrad)"/>
  <text x="1075" y="395" text-anchor="middle" font-size="11" font-weight="bold" fill="white">Vector Index</text>
  <text x="1075" y="410" text-anchor="middle" font-size="9" fill="white">384 Dimensions</text>
  <text x="1075" y="425" text-anchor="middle" font-size="9" fill="white">Cosine Similarity</text>
  
  <rect x="1020" y="450" width="110" height="80" rx="4" fill="#FCA5A5" stroke="#EF4444"/>
  <text x="1075" y="470" text-anchor="middle" font-size="10" font-weight="bold" fill="#B91C1C">Search Features</text>
  <text x="1030" y="485" font-size="8" fill="#B91C1C">• Hybrid Search</text>
  <text x="1030" y="498" font-size="8" fill="#B91C1C">• Metadata Filtering</text>
  <text x="1030" y="511" font-size="8" fill="#B91C1C">• Vector Similarity</text>
  <text x="1030" y="524" font-size="8" fill="#B91C1C">• Top-K Results</text>
  
  <!-- Query Flow -->
  <rect x="50" y="580" width="1100" height="180" rx="8" fill="#F1F5F9" stroke="#64748B" stroke-width="2" filter="url(#shadow)"/>
  <text x="600" y="605" text-anchor="middle" font-size="16" font-weight="bold" fill="#334155">Query Execution Flow</text>
  
  <!-- Flow Steps -->
  <rect x="80" y="630" width="140" height="50" rx="4" fill="#8B5CF6"/>
  <text x="150" y="650" text-anchor="middle" font-size="10" font-weight="bold" fill="white">1. User Query</text>
  <text x="150" y="665" text-anchor="middle" font-size="9" fill="white">"Articles by John Doe"</text>
  
  <rect x="250" y="630" width="140" height="50" rx="4" fill="#06B6D4"/>
  <text x="320" y="650" text-anchor="middle" font-size="10" font-weight="bold" fill="white">2. AI Processing</text>
  <text x="320" y="665" text-anchor="middle" font-size="9" fill="white">Filter + Semantic</text>
  
  <rect x="420" y="630" width="140" height="50" rx="4" fill="#10B981"/>
  <text x="490" y="650" text-anchor="middle" font-size="10" font-weight="bold" fill="white">3. Vector Encoding</text>
  <text x="490" y="665" text-anchor="middle" font-size="9" fill="white">SentenceTransformer</text>
  
  <rect x="590" y="630" width="140" height="50" rx="4" fill="#F59E0B"/>
  <text x="660" y="650" text-anchor="middle" font-size="10" font-weight="bold" fill="white">4. Pinecone Query</text>
  <text x="660" y="665" text-anchor="middle" font-size="9" fill="white">Hybrid Search</text>
  
  <rect x="760" y="630" width="140" height="50" rx="4" fill="#EF4444"/>
  <text x="830" y="650" text-anchor="middle" font-size="10" font-weight="bold" fill="white">5. Results</text>
  <text x="830" y="665" text-anchor="middle" font-size="9" fill="white">Metadata + Scores</text>
  
  <rect x="930" y="630" width="140" height="50" rx="4" fill="#8B5CF6"/>
  <text x="1000" y="650" text-anchor="middle" font-size="10" font-weight="bold" fill="white">6. Display</text>
  <text x="1000" y="665" text-anchor="middle" font-size="9" fill="white">Streamlit UI</text>
  
  <!-- Example Query -->
  <rect x="80" y="700" width="990" height="40" rx="4" fill="#E0E7FF" stroke="#6366F1"/>
  <text x="575" y="715" text-anchor="middle" font-size="11" font-weight="bold" fill="#4338CA">Example Query Processing</text>
  <text x="90" y="730" font-size="10" fill="#4338CA">Input: "Show me articles by Jane Doe from 2024 about machine learning"</text>
  <text x="580" y="730" font-size="10" fill="#4338CA">→ Filter: {"author": "Jane Doe", "published_year": 2024, "tags": {"$in": ["machine learning"]}}</text>
  
  <!-- Arrows -->
  <!-- UI to Data Processing -->
  <path d="M 200 300 L 200 330" stroke="#3B82F6" stroke-width="2" fill="none" marker-end="url(#arrowhead)"/>
  
  <!-- Data Processing Flow -->
  <path d="M 170 405 L 190 405" stroke="#10B981" stroke-width="2" fill="none" marker-end="url(#arrowhead)"/>
  <path d="M 290 405 L 310 405" stroke="#10B981" stroke-width="2" fill="none" marker-end="url(#arrowhead)"/>
  <path d="M 410 405 L 430 405" stroke="#10B981" stroke-width="2" fill="none" marker-end="url(#arrowhead)"/>
  <path d="M 530 405 L 650 405" stroke="#10B981" stroke-width="2" fill="none" marker-end="url(#arrowhead)"/>
  
  <!-- AI to Database -->
  <path d="M 950 415 L 1000 415" stroke="#F59E0B" stroke-width="2" fill="none" marker-end="url(#arrowhead)"/>
  
  <!-- Query Flow Arrows -->
  <path d="M 220 655 L 250 655" stroke="#64748B" stroke-width="2" fill="none" marker-end="url(#arrowhead)"/>
  <path d="M 390 655 L 420 655" stroke="#64748B" stroke-width="2" fill="none" marker-end="url(#arrowhead)"/>
  <path d="M 560 655 L 590 655" stroke="#64748B" stroke-width="2" fill="none" marker-end="url(#arrowhead)"/>
  <path d="M 730 655 L 760 655" stroke="#64748B" stroke-width="2" fill="none" marker-end="url(#arrowhead)"/>
  <path d="M 900 655 L 930 655" stroke="#64748B" stroke-width="2" fill="none" marker-end="url(#arrowhead)"/>
  
  <!-- Feedback arrow -->
  <path d="M 1000 630 Q 1050 580 1000 530 Q 950 580 200 580 Q 150 580 200 580" stroke="#8B5CF6" stroke-width="2" fill="none" marker-end="url(#arrowhead)" stroke-dasharray="5,5"/>
  
  <!-- Arrow marker -->
  <defs>
    <marker id="arrowhead" markerWidth="10" markerHeight="7" refX="10" refY="3.5" orient="auto">
      <polygon points="0 0, 10 3.5, 0 7" fill="#64748B" />
    </marker>
  </defs>
  
  <!-- Technology Stack -->
  <rect x="50" y="780" width="1100" height="100" rx="8" fill="#F8F9FA" stroke="#6C757D" stroke-width="1" filter="url(#shadow)"/>
  <text x="600" y="805" text-anchor="middle" font-size="16" font-weight="bold" fill="#495057">Technology Stack</text>
  
  <text x="100" y="830" font-size="12" font-weight="bold" fill="#495057">Frontend:</text>
  <text x="100" y="845" font-size="10" fill="#6C757D">Streamlit</text>
  <text x="100" y="860" font-size="10" fill="#6C757D">Python UI</text>
  
  <text x="250" y="830" font-size="12" font-weight="bold" fill="#495057">AI/ML:</text>
  <text x="250" y="845" font-size="10" fill="#6C757D">Google Gemini 2.5</text>
  <text x="250" y="860" font-size="10" fill="#6C757D">SentenceTransformers</text>
  
  <text x="400" y="830" font-size="12" font-weight="bold" fill="#495057">Vector DB:</text>
  <text x="400" y="845" font-size="10" fill="#6C757D">Pinecone</text>
  <text x="400" y="860" font-size="10" fill="#6C757D">Serverless</text>
  
  <text x="550" y="830" font-size="12" font-weight="bold" fill="#495057">Data Processing:</text>
  <text x="550" y="845" font-size="10" fill="#6C757D">Pandas</text>
  <text x="550" y="860" font-size="10" fill="#6C757D">JSON</text>
  
  <text x="700" y="830" font-size="12" font-weight="bold" fill="#495057">APIs:</text>
  <text x="700" y="845" font-size="10" fill="#6C757D">Pinecone API</text>
  <text x="700" y="860" font-size="10" fill="#6C757D">Google AI API</text>
  
  <text x="850" y="830" font-size="12" font-weight="bold" fill="#495057">Deployment:</text>
  <text x="850" y="845" font-size="10" fill="#6C757D">FastAPI</text>
  <text x="850" y="860" font-size="10" fill="#6C757D">Uvicorn</text>
  
  <text x="1000" y="830" font-size="12" font-weight="bold" fill="#495057">Dependencies:</text>
  <text x="1000" y="845" font-size="10" fill="#6C757D">Requirements.txt</text>
  <text x="1000" y="860" font-size="10" fill="#6C757D">pip install</text>
</svg>